# xmcd
#
# Track frame offsets: 
#        150
#        14980
#        38213
#        52076
#        70468
#        85355
#        93622
#        109291
#        121623
#        135121
#        143832
#        162715
#        177111
#
# Disc length: 2436 seconds
#
# Revision: 5
# Processed by: cddbd v1.5.2PL0 Copyright (c) Steve Scherf et al.
# Submitted via: ExactAudioCopy v0.99pb5
#
DISCID=bc09820d
DTITLE=Harry Manx - Dog My Cat
DYEAR=2006
DGENRE=Blues
TTITLE0=Can't be Satisfied
TTITLE1=Bring That Thing
TTITLE2=Good Morning Stranger
TTITLE3=Reuben's Train
TTITLE4=Lay Down My Worries
TTITLE5=Rag Bihag (Dusk Rag)
TTITLE6=Sunday Morning Ascension
TTITLE7=Baby Please Don't Go
TTITLE8=Brick and Stone
TTITLE9=Song for William
TTITLE10=Love Ain't no Game
TTITLE11=Shame Shame Shame
TTITLE12=Rag Jog (Evening Rag)
EXTD=
EXTT0=
EXTT1=
EXTT2=
EXTT3=
EXTT4=
EXTT5=
EXTT6=
EXTT7=
EXTT8=
EXTT9=
EXTT10=
EXTT11=
EXTT12=
PLAYORDER=
